<?xml version="1.0" encoding="UTF-8"?>
<svg id="_Слой_2" data-name="Слой 2" xmlns="http://www.w3.org/2000/svg" viewBox="0 0 432.52 116.02">
  <defs>
    <style>
      .cls-1 {
        fill: #333;
      }

      .cls-2 {
        fill: #f87000;
      }
    </style>
  </defs>
  <g id="Layer_1" data-name="Layer 1">
    <g>
      <g>
        <path class="cls-2" d="M101.16,116.02c-4.2,0-8.15-1.64-11.12-4.61-2.97-2.97-4.61-6.92-4.61-11.12s1.63-8.15,4.6-11.11c2.97-2.97,6.92-4.61,11.13-4.61s8.15,1.63,11.12,4.6c6.13,6.13,6.13,16.11,0,22.25-2.97,2.97-6.91,4.6-11.11,4.6Z"/>
        <path class="cls-2" d="M15.73,32.18c-4.2,0-8.15-1.64-11.13-4.61C1.64,24.6,0,20.65,0,16.45S1.63,8.3,4.6,5.34C7.57,2.36,11.53,.73,15.73,.73s8.15,1.63,11.11,4.6c2.97,2.97,4.61,6.92,4.61,11.12s-1.64,8.15-4.61,11.12c-2.97,2.97-6.91,4.6-11.11,4.6Z"/>
        <path class="cls-2" d="M100.45,31.71c-4.2,0-8.15-1.64-11.12-4.61-6.13-6.13-6.13-16.11,0-22.23,2.97-2.97,6.92-4.61,11.13-4.61s8.15,1.64,11.12,4.61c6.13,6.13,6.13,16.11,0,22.25-2.97,2.96-6.92,4.6-11.11,4.6Z"/>
        <path class="cls-2" d="M16.14,116.02c-4.2,0-8.15-1.64-11.13-4.61-2.97-2.97-4.6-6.92-4.6-11.12,0-4.2,1.64-8.15,4.61-11.12,.62-.63,1.32-1.2,2.21-1.8,.27-.19,.52-.34,.77-.49,.58-.33,1.16-.64,1.7-.89,.29-.13,.6-.27,.92-.39,.57-.21,1.2-.4,1.92-.57,.14-.04,.27-.07,.4-.11,.08-.02,.16-.05,.24-.07l3.5-.24c.44,.02,.92,.08,1.43,.14l.2,.03c.12,.01,.28,.03,.44,.04h.14s.16,.04,.16,.04h.14c.26,0,.51,.01,.76,.01,6.03,0,11.99-2.57,16.34-7.05,4.33-4.46,6.72-10.46,6.55-16.46v-.18s-.04-.19-.04-.19c-.03-.17-.04-.34-.05-.51-.01-.2-.03-.4-.06-.6l-.04-.35c-.03-.3-.07-.6-.09-.9l.27-3.51c.02-.09,.05-.17,.07-.25l.06-.22c.16-.67,.33-1.33,.59-1.98,.13-.37,.25-.64,.39-.92,.28-.61,.57-1.17,.91-1.74,.15-.25,.29-.5,.46-.74,.64-.93,1.21-1.63,1.81-2.23,2.97-2.97,6.92-4.6,11.13-4.6s8.15,1.63,11.13,4.6c6.12,6.13,6.12,16.11-.01,22.24-.62,.62-1.32,1.19-2.22,1.8-.26,.18-.51,.33-.76,.47-.57,.34-1.13,.64-1.7,.9-.31,.14-.61,.28-.91,.39-.6,.22-1.24,.41-1.91,.57l-.38,.1c-.09,.02-.17,.05-.25,.07l-3.53,.25c-.41-.02-.85-.07-1.31-.13l-.31-.04c-.1-.02-.27-.03-.44-.04h-.12s-.18-.05-.18-.05h-.14c-.26,0-.51-.01-.77-.01-6.03,0-11.99,2.57-16.34,7.04-4.34,4.46-6.72,10.46-6.55,16.47v.18s.04,.18,.04,.18c.03,.17,.04,.34,.05,.51,.01,.2,.03,.4,.06,.6,0,.12,.03,.34,.06,.55,.03,.24,.06,.48,.06,.72v.09l-.25,3.37c-.02,.07-.13,.46-.16,.58-.17,.73-.36,1.37-.58,1.95-.12,.32-.24,.6-.38,.89-.27,.6-.57,1.17-.91,1.75-.15,.24-.32,.52-.5,.79-.58,.85-1.16,1.56-1.79,2.19-2.96,2.97-6.91,4.6-11.11,4.6h0Z"/>
        <path class="cls-2" d="M58.61,116.02c-4.2,0-8.16-1.64-11.13-4.61-2.97-2.97-4.6-6.92-4.61-11.12,0-4.2,1.63-8.14,4.6-11.11,.61-.61,1.29-1.17,2.23-1.82,.23-.16,.48-.31,.75-.46,.58-.35,1.13-.64,1.71-.9,.31-.14,.61-.28,.91-.39,.58-.21,1.22-.4,1.89-.55,0,0,.55-.16,.62-.18l3.56-.26c.42,.02,.87,.08,1.35,.14l.26,.03c.17,.02,.32,.03,.47,.03,.06,0,.12,0,.17,0h.11s.15,.03,.15,.03c.26,0,.52,.01,.78,.01,6.02,0,11.97-2.57,16.31-7.04,4.33-4.46,6.72-10.46,6.55-16.46l-.02-.73-.07-.08s0-.05,0-.08c0-.17-.02-.34-.04-.52l-.06-.5c-.03-.28-.07-.55-.08-.83l.24-3.4c.02-.08,.14-.5,.17-.63,.2-.81,.38-1.41,.58-1.94,.11-.32,.25-.61,.39-.91,.25-.55,.55-1.11,.91-1.72l.07-.11c.12-.21,.24-.41,.38-.61,.64-.94,1.22-1.64,1.82-2.25,2.97-2.97,6.93-4.61,11.13-4.61s8.15,1.63,11.12,4.6c6.13,6.13,6.13,16.11,0,22.25-.59,.59-1.3,1.16-2.23,1.8-.18,.12-.35,.22-.52,.33l-.28,.17c-.53,.31-1.1,.61-1.66,.87-.31,.14-.61,.28-.92,.39-.55,.21-1.16,.38-1.92,.57-.15,.04-.28,.08-.4,.11-.09,.02-.17,.05-.25,.07l-3.5,.24c-.51-.02-1.06-.1-1.6-.17-.18-.02-.32-.03-.46-.04-.05,0-.11,0-.16,0l-.3-.03c-.26-.01-.52-.01-.78-.01-6.03,0-11.97,2.57-16.32,7.04-4.33,4.46-6.72,10.46-6.54,16.47v.18s.04,.17,.04,.17c.03,.18,.04,.36,.05,.54,.01,.19,.03,.37,.05,.54,.01,.15,.03,.34,.05,.52,.03,.27,.06,.53,.07,.8l-.26,3.45c-.02,.08-.15,.54-.15,.54-.17,.73-.36,1.37-.58,1.97-.1,.28-.23,.56-.36,.84l-.04,.1c-.26,.56-.55,1.12-.88,1.66-.16,.27-.32,.53-.49,.78-.62,.89-1.2,1.61-1.82,2.23-2.95,2.96-6.9,4.59-11.09,4.59h0Z"/>
        <path class="cls-2" d="M16.15,73.57c-4.2,0-8.15-1.63-11.12-4.6-2.97-2.97-4.61-6.92-4.61-11.13,0-4.2,1.63-8.14,4.6-11.11,.61-.61,1.32-1.18,2.23-1.81,.24-.16,.51-.32,.77-.48,.54-.32,1.1-.62,1.69-.89,.3-.14,.61-.28,.93-.39,.58-.21,1.22-.4,1.88-.55l.4-.11c.07-.02,.14-.05,.22-.06l3.56-.26c.46,.02,.96,.09,1.49,.16h.11c.18,.03,.32,.04,.47,.05,.05,0,.1,0,.15,0l.15,.03h.14c.26,.01,.52,.02,.78,.02,6.02,0,11.97-2.56,16.31-7.04,4.33-4.46,6.72-10.46,6.54-16.47v-.17s-.04-.17-.04-.17c-.04-.19-.04-.38-.05-.58,0-.16-.02-.32-.04-.48l-.05-.48c-.04-.29-.07-.58-.08-.87l.24-3.3,.02-.08v-.07c.02-.08,.15-.51,.15-.51,.2-.85,.38-1.46,.58-2,.11-.3,.25-.59,.39-.9,.26-.56,.56-1.14,.9-1.72l.05-.09c.14-.23,.27-.45,.42-.68,.62-.9,1.2-1.61,1.79-2.21,2.97-2.97,6.92-4.61,11.13-4.61s8.15,1.63,11.12,4.6c6.13,6.13,6.12,16.11,0,22.24-.61,.61-1.33,1.2-2.21,1.8-.24,.17-.45,.29-.66,.42l-.12,.07c-.58,.34-1.15,.64-1.68,.89-.32,.15-.61,.28-.92,.39-.59,.22-1.22,.4-1.92,.57-.15,.04-.28,.08-.42,.11-.08,.02-.16,.05-.25,.07l-3.49,.24c-.44-.02-.91-.08-1.41-.14l-.21-.03c-.16-.02-.31-.03-.45-.04-.06,0-.12,0-.17-.01h-.12s-.15-.03-.15-.03c-.26,0-.52-.02-.78-.02-6.02,0-11.97,2.57-16.31,7.04-4.33,4.46-6.72,10.47-6.55,16.47v.18s.04,.17,.04,.17c.04,.18,.04,.36,.06,.54,.01,.18,.03,.37,.05,.55,.01,.15,.04,.33,.06,.52,.03,.26,.06,.52,.07,.78l-.25,3.43c-.02,.09-.05,.18-.08,.27l-.09,.31c-.17,.77-.36,1.41-.57,1.97-.11,.3-.26,.6-.4,.92-.26,.56-.55,1.12-.89,1.69-.16,.27-.31,.53-.48,.77-.65,.94-1.2,1.62-1.81,2.22-2.97,2.97-6.91,4.6-11.11,4.6h0Z"/>
      </g>
      <g>
        <path class="cls-1" d="M145.06,44.95h-11.4v-8.02h32.45v8.02h-11.53v34.21h-9.52V44.95Z"/>
        <path class="cls-1" d="M196.3,61.3h-15.54v10.02h17.35v7.83h-26.88V36.93h26v7.83h-16.48v8.77h15.54v7.77Z"/>
        <path class="cls-1" d="M235.58,78.03c-1.69,.82-5.7,1.82-10.77,1.82-14.6,0-22.12-9.15-22.12-21.17,0-14.41,10.27-22.37,23.05-22.37,4.95,0,8.71,.94,10.4,1.88l-2.01,7.52c-1.88-.81-4.57-1.57-8.02-1.57-7.52,0-13.41,4.57-13.41,13.97,0,8.46,5.01,13.78,13.47,13.78,2.94,0,6.08-.56,8.02-1.38l1.38,7.52Z"/>
        <path class="cls-1" d="M251.49,36.93v16.23h15.72v-16.23h9.52v42.22h-9.52v-17.67h-15.72v17.67h-9.52V36.93h9.52Z"/>
        <path class="cls-1" d="M285.63,36.93h5.51v37.65h18.04v4.57h-23.56V36.93Z"/>
        <path class="cls-1" d="M348.9,57.6c0,14.47-8.83,22.24-19.61,22.24s-18.98-8.71-18.98-21.49c0-13.41,8.27-22.18,19.55-22.18s19.04,8.83,19.04,21.43Zm-32.83,.63c0,9.08,4.89,17.17,13.53,17.17s13.53-7.96,13.53-17.54c0-8.46-4.39-17.23-13.47-17.23s-13.59,8.39-13.59,17.6Z"/>
        <path class="cls-1" d="M388.17,77.28c-2.44,.94-7.33,2.32-13.03,2.32-6.39,0-11.65-1.63-15.79-5.58-3.63-3.51-5.89-9.15-5.89-15.72,0-12.59,8.71-21.8,22.87-21.8,4.89,0,8.77,1.07,10.59,1.94l-1.38,4.45c-2.26-1.07-5.07-1.82-9.33-1.82-10.27,0-16.98,6.39-16.98,16.98s6.39,17.04,16.29,17.04c3.57,0,6.01-.5,7.27-1.13v-12.59h-8.52v-4.39h13.91v20.3Z"/>
        <path class="cls-1" d="M432.52,57.6c0,14.47-8.83,22.24-19.61,22.24s-18.98-8.71-18.98-21.49c0-13.41,8.27-22.18,19.55-22.18s19.04,8.83,19.04,21.43Zm-32.83,.63c0,9.08,4.89,17.17,13.53,17.17s13.53-7.96,13.53-17.54c0-8.46-4.39-17.23-13.47-17.23s-13.59,8.39-13.59,17.6Z"/>
      </g>
    </g>
  </g>
</svg>