<?xml version="1.0" encoding="UTF-8"?>
<svg id="_Слой_2" data-name="Слой 2" xmlns="http://www.w3.org/2000/svg" viewBox="0 0 46 45.66">
  <defs>
    <style>
      .cls-1 {
        fill: #ee7117;
      }
    </style>
  </defs>
  <g id="_Слой_1-2" data-name="Слой 1">
    <g id="_Слой_2-2" data-name=" Слой 2-2">
      <g>
        <path class="cls-1" d="M39.81,45.66c-1.65,0-3.21-.65-4.38-1.81s-1.81-2.72-1.81-4.38,.64-3.21,1.81-4.37c1.17-1.17,2.72-1.81,4.38-1.81s3.21,.64,4.38,1.81c2.41,2.41,2.41,6.34,0,8.76-1.17,1.17-2.72,1.81-4.37,1.81h0Z"/>
        <path class="cls-1" d="M6.19,12.66c-1.65,0-3.21-.65-4.38-1.81-1.17-1.17-1.81-2.72-1.81-4.38S.64,3.26,1.81,2.1C2.98,.92,4.54,.28,6.19,.28s3.21,.64,4.37,1.81c1.17,1.17,1.81,2.72,1.81,4.38s-.65,3.21-1.81,4.38c-1.17,1.17-2.72,1.81-4.37,1.81h0Z"/>
        <path class="cls-1" d="M39.54,12.48c-1.65,0-3.21-.65-4.38-1.81-2.41-2.41-2.41-6.34,0-8.75,1.17-1.17,2.72-1.81,4.38-1.81s3.21,.65,4.38,1.81c2.41,2.41,2.41,6.34,0,8.76-1.17,1.17-2.72,1.81-4.37,1.81h0Z"/>
        <path class="cls-1" d="M6.35,45.66c-1.65,0-3.21-.65-4.38-1.81-1.17-1.17-1.81-2.72-1.81-4.38s.65-3.21,1.81-4.38c.24-.25,.52-.47,.87-.71,.11-.07,.2-.13,.3-.19,.23-.13,.46-.25,.67-.35,.11-.05,.24-.11,.36-.15,.22-.08,.47-.16,.76-.22,.06-.02,.11-.03,.16-.04,.03,0,.06-.02,.09-.03l1.38-.09c.17,0,.36,.03,.56,.06h.08s.11,.02,.17,.03h.06l.06,.02h.06c.1,0,.2,0,.3,0,2.37,0,4.72-1.01,6.43-2.77,1.7-1.76,2.64-4.12,2.58-6.48v-.07l-.02-.07c-.01-.07-.02-.13-.02-.2,0-.08-.01-.16-.02-.24l-.02-.14c-.01-.12-.03-.24-.04-.35l.11-1.38s.02-.07,.03-.1l.02-.09c.06-.26,.13-.52,.23-.78,.05-.15,.1-.25,.15-.36,.11-.24,.22-.46,.36-.68,.06-.1,.11-.2,.18-.29,.25-.37,.48-.64,.71-.88,1.17-1.17,2.72-1.81,4.38-1.81s3.21,.64,4.38,1.81c2.41,2.41,2.41,6.34,0,8.75-.24,.24-.52,.47-.87,.71-.1,.07-.2,.13-.3,.18-.22,.13-.44,.25-.67,.35-.12,.06-.24,.11-.36,.15-.24,.09-.49,.16-.75,.22l-.15,.04s-.07,.02-.1,.03l-1.39,.1c-.16,0-.33-.03-.52-.05l-.12-.02s-.11-.01-.17-.02h-.05l-.07-.02h-.06c-.1,0-.2,0-.3,0-2.37,0-4.72,1.01-6.43,2.77-1.71,1.76-2.64,4.12-2.58,6.48v.07l.02,.07c.01,.07,.02,.13,.02,.2,0,.08,.01,.16,.02,.24,0,.05,.01,.13,.02,.22,.01,.09,.02,.19,.02,.28v.04l-.1,1.33s-.05,.18-.06,.23c-.07,.29-.14,.54-.23,.77-.05,.13-.09,.24-.15,.35-.11,.24-.22,.46-.36,.69-.06,.09-.13,.2-.2,.31-.23,.33-.46,.61-.7,.86-1.17,1.17-2.72,1.81-4.37,1.81h0Z"/>
        <path class="cls-1" d="M23.07,45.66c-1.65,0-3.21-.65-4.38-1.81s-1.81-2.72-1.81-4.38c0-1.65,.64-3.2,1.81-4.37,.24-.24,.51-.46,.88-.72,.09-.06,.19-.12,.3-.18,.23-.14,.44-.25,.67-.35,.12-.06,.24-.11,.36-.15,.23-.08,.48-.16,.74-.22,0,0,.22-.06,.24-.07l1.4-.1c.17,0,.34,.03,.53,.06h.1c.07,.02,.13,.02,.18,.02h.17c.1,.01,.2,.02,.31,.02,2.37,0,4.71-1.01,6.42-2.77,1.7-1.76,2.64-4.12,2.58-6.48v-.29s-.04-.03-.04-.03v-.03c0-.07,0-.13-.02-.2l-.02-.2c-.01-.11-.03-.22-.03-.33l.09-1.34s.06-.2,.07-.25c.08-.32,.15-.55,.23-.76,.04-.13,.1-.24,.15-.36,.1-.22,.22-.44,.36-.68l.03-.04c.05-.08,.09-.16,.15-.24,.25-.37,.48-.65,.72-.89,1.17-1.17,2.73-1.81,4.38-1.81s3.21,.64,4.38,1.81c2.41,2.41,2.41,6.34,0,8.76-.23,.23-.51,.46-.88,.71-.07,.05-.14,.09-.2,.13l-.11,.07c-.21,.12-.43,.24-.65,.34-.12,.06-.24,.11-.36,.15-.22,.08-.46,.15-.76,.22-.06,.02-.11,.03-.16,.04-.04,0-.07,.02-.1,.03l-1.38,.09c-.2,0-.42-.04-.63-.07-.07,0-.13-.01-.18-.02h-.18c-.1-.02-.2-.02-.31-.02-2.37,0-4.71,1.01-6.42,2.77-1.7,1.76-2.64,4.12-2.57,6.48v.07l.02,.07c.01,.07,.02,.14,.02,.21,0,.07,.01,.15,.02,.21,0,.06,.01,.13,.02,.2,.01,.11,.02,.21,.03,.31l-.1,1.36s-.06,.21-.06,.21c-.07,.29-.14,.54-.23,.78-.04,.11-.09,.22-.14,.33l-.02,.04c-.1,.22-.22,.44-.35,.65-.06,.11-.13,.21-.19,.31-.24,.35-.47,.63-.72,.88-1.16,1.17-2.72,1.81-4.36,1.81h.01Z"/>
        <path class="cls-1" d="M6.36,28.95c-1.65,0-3.21-.64-4.38-1.81-1.17-1.17-1.81-2.72-1.81-4.38s.64-3.2,1.81-4.37c.24-.24,.52-.46,.88-.71,.09-.06,.2-.13,.3-.19,.21-.13,.43-.24,.67-.35,.12-.06,.24-.11,.37-.15,.23-.08,.48-.16,.74-.22l.16-.04s.06-.02,.09-.02l1.4-.1c.18,0,.38,.04,.59,.06h.04c.07,.01,.13,.02,.18,.02h.12s.06,.01,.06,.01c.1,0,.2,0,.31,0,2.37,0,4.71-1.01,6.42-2.77,1.7-1.76,2.64-4.12,2.57-6.48v-.07l-.02-.07c-.02-.07-.02-.15-.02-.23,0-.06,0-.13-.02-.19l-.02-.19c-.02-.11-.03-.23-.03-.34l.09-1.3v-.03s0-.03,0-.03c0-.03,.06-.2,.06-.2,.08-.33,.15-.57,.23-.79,.04-.12,.1-.23,.15-.35,.1-.22,.22-.45,.35-.68l.02-.04c.06-.09,.11-.18,.17-.27,.24-.35,.47-.63,.7-.87,1.17-1.17,2.72-1.81,4.38-1.81s3.21,.64,4.38,1.81c2.41,2.41,2.41,6.34,0,8.75-.24,.24-.52,.47-.87,.71-.09,.07-.18,.11-.26,.17l-.05,.03c-.23,.13-.45,.25-.66,.35-.13,.06-.24,.11-.36,.15-.23,.09-.48,.16-.76,.22-.06,.02-.11,.03-.17,.04-.03,0-.06,.02-.1,.03l-1.37,.09c-.17,0-.36-.03-.55-.06h-.08c-.06-.02-.12-.02-.18-.03-.02,0-.05,0-.07,0h-.11c-.1-.01-.2-.02-.31-.02-2.37,0-4.71,1.01-6.42,2.77-1.7,1.76-2.64,4.12-2.58,6.48v.07l.02,.07c.02,.07,.02,.14,.02,.21,0,.07,.01,.15,.02,.22,0,.06,.02,.13,.02,.2,.01,.1,.02,.2,.03,.31l-.1,1.35s-.02,.07-.03,.11l-.04,.12c-.07,.3-.14,.55-.22,.78-.04,.12-.1,.24-.16,.36-.1,.22-.22,.44-.35,.67-.06,.11-.12,.21-.19,.3-.26,.37-.47,.64-.71,.87-1.17,1.17-2.72,1.81-4.37,1.81h0Z"/>
      </g>
    </g>
  </g>
</svg>